<?xml version="1.0" standalone="no"?>
<svg width="64" height="64" viewBox="0 0 1024 768" version="1.1" xmlns="http://www.w3.org/2000/svg">
  <path d="M512 469q70 0 120.5 50.5t50.5 120.5t-50.5 120.5t-120.5 50.5t-120.5 -50.5t-50.5 -120.5t50.5 -120.5t120.5 -50.5zM512 725q35 0 60 -25t25 -60t-25 -60t-60 -25t-60 25t-25 60t25 60t60 25zM256 341q-70 0 -120.5 -50t-50.5 -120.5t50.5 -120.5t120.5 -50t120.5 50    t50.5 120.5t-50.5 120.5t-120.5 50zM256 85q-35 0 -60 25t-25 60.5t25 60.5t60 25t60 -25t25 -60.5t-25 -60.5t-60 -25zM512 422q-32 0 -56.5 -24.5t-24.5 -56.5t24.5 -56.5t56.5 -24.5t56.5 24.5t24.5 56.5t-24.5 56.5t-56.5 24.5zM768 341q-70 0 -120.5 -50t-50.5 -120.5    t50.5 -120.5t120.5 -50t120.5 50t50.5 120.5t-50.5 120.5t-120.5 50zM768 85q-35 0 -60 25t-25 60.5t25 60.5t60 25t60 -25t25 -60.5t-25 -60.5t-60 -25z" transform="matrix(1,0,0,-1,0,768)"/>
</svg>