<?xml version="1.0" standalone="no"?>
<svg width="64" height="64" viewBox="0 0 1024 768" version="1.1" xmlns="http://www.w3.org/2000/svg">
  <path d="M196 602q15 15 23 22t19.5 17t18.5 12.5t12 -0.5q7 -3 9 -10t-3 -18.5t-9 -17.5l-10 -18q-12 -16 -26 -37t-39.5 -63.5t-42 -88t-16.5 -80.5q0 -79 56 -128q47 -35 111 -21q9 2 18.5 6.5t19.5 12.5t17 14t18.5 18.5t17.5 19.5t20 23.5t21 24.5q24 30 42 50.5t42.5 45    t47.5 37t43 12.5q14 0 25 -2t18.5 -7.5t12.5 -9.5t8.5 -13t5 -14t4 -16t3.5 -15q-58 -9 -104.5 -36t-72.5 -61.5t-40 -69t-14 -63.5q0 -55 40 -93.5t97 -38.5q22 0 45.5 7t49.5 25.5t47 47t37 75t21 105.5h107v107h-107q-3 23 -9 45t-19 47t-31 43.5t-47 31t-64 12.5    q-43 0 -89 -23t-74 -48t-46 -49q-10 -10 -34 -39t-42.5 -50.5t-22.5 -25.5q-1 -2 -7.5 -8t-9.5 -9.5t-9 -8t-11 -6.5t-9 -2q-14 0 -20 23t2 58q13 34 39 82t43 67q20 35 27.5 49.5t15.5 40t8 51.5q0 33 -11 58.5t-28.5 39t-34.5 20t-33 6.5q-60 0 -115 -55l-39 -39zM593 102    q-10 0 -20 9t-10 21q0 16 10.5 37t40.5 46t73 37q-12 -78 -39 -114t-55 -36z" transform="matrix(1,0,0,-1,0,768)"/>
</svg>