<?xml version="1.0" standalone="no"?>
<svg width="64" height="64" viewBox="0 0 1024 768" version="1.1" xmlns="http://www.w3.org/2000/svg">
  <path d="M713 256q-27 -75 -93 -123t-151 -48q-105 0 -180.5 75.5t-75.5 180.5q0 82 48 148t123 96v12q0 60 21 124q-136 -23 -228 -130t-92 -250q0 -105 51.5 -193t139.5 -139.5t193 -51.5q143 0 250 92t130 228q-64 -21 -124 -21h-12zM725.5 853q-105.5 0 -181 -75t-75.5 -180.5    t75.5 -181t181 -75.5t180.5 75.5t75 181t-75 180.5t-180.5 75zM725.5 469q-54.5 0 -91.5 37t-37 91.5t37 91t91.5 36.5t91 -36.5t36.5 -91t-36.5 -91.5t-91 -37z" transform="matrix(1,0,0,-1,0,768)"/>
</svg>